<?xml version="1.0" encoding="UTF-8" standalone="no"?>
<!-- Created with Inkscape (http://www.inkscape.org/) -->

<svg
   width="200"
   height="80"
   viewBox="0 0 200 80.000001"
   version="1.1"
   id="svg5"
   inkscape:version="1.1 (c68e22c387, 2021-05-23)"
   sodipodi:docname="tidito_header.svg"
   xmlns:inkscape="http://www.inkscape.org/namespaces/inkscape"
   xmlns:sodipodi="http://sodipodi.sourceforge.net/DTD/sodipodi-0.dtd"
   xmlns="http://www.w3.org/2000/svg"
   xmlns:svg="http://www.w3.org/2000/svg">
  <sodipodi:namedview
     id="namedview7"
     pagecolor="#505050"
     bordercolor="#ffffff"
     borderopacity="1"
     inkscape:pageshadow="0"
     inkscape:pageopacity="0"
     inkscape:pagecheckerboard="1"
     inkscape:document-units="px"
     showgrid="false"
     units="px"
     inkscape:zoom="5.12"
     inkscape:cx="104.19922"
     inkscape:cy="41.699219"
     inkscape:window-width="1920"
     inkscape:window-height="1027"
     inkscape:window-x="-8"
     inkscape:window-y="-8"
     inkscape:window-maximized="1"
     inkscape:current-layer="layer1"
     showguides="true"
     inkscape:guide-bbox="true"
     inkscape:snap-bbox="true"
     inkscape:bbox-paths="true"
     inkscape:bbox-nodes="true"
     inkscape:snap-bbox-edge-midpoints="true"
     inkscape:snap-bbox-midpoints="true"
     inkscape:object-paths="true"
     inkscape:snap-intersection-paths="true"
     inkscape:snap-smooth-nodes="true"
     inkscape:snap-midpoints="true"
     inkscape:snap-object-midpoints="true"
     inkscape:snap-center="true"
     inkscape:snap-text-baseline="true"
     inkscape:snap-page="true" />
  <defs
     id="defs2">
    <rect
       x="159.97905"
       y="223.97067"
       width="281.29651"
       height="69.324257"
       id="rect12509" />
    <rect
       x="178.64328"
       y="135.98219"
       width="781.23102"
       height="234.63596"
       id="rect2363" />
    <rect
       x="178.64328"
       y="135.98219"
       width="781.23102"
       height="234.63596"
       id="rect49477" />
    <rect
       x="178.64328"
       y="135.98219"
       width="781.23102"
       height="234.63596"
       id="rect49483" />
    <rect
       x="178.64328"
       y="135.98219"
       width="781.23102"
       height="234.63596"
       id="rect49489" />
    <rect
       x="178.64328"
       y="135.98219"
       width="781.23102"
       height="234.63596"
       id="rect54973" />
    <rect
       x="178.64328"
       y="135.98219"
       width="781.23102"
       height="234.63596"
       id="rect54979" />
    <rect
       x="178.64328"
       y="135.98219"
       width="781.23102"
       height="234.63596"
       id="rect49477-5" />
  </defs>
  <g
     inkscape:label="Layer 1"
     inkscape:groupmode="layer"
     id="layer1"
     transform="translate(-159.64577,-148.63544)">
    <g
       aria-label="Timing Diagram Tool"
       transform="matrix(0.84262251,0,0,0.84262251,34.540926,9.1048122)"
       id="text12507"
       style="font-size:24px;line-height:1.25;font-family:Lato;-inkscape-font-specification:Lato;letter-spacing:0px;word-spacing:0px;white-space:pre;shape-inside:url(#rect12509);fill:#ffffff;stroke-width:1.18677">
      <path
         d="m 173.80252,231.0507 h -5.568 v 15.24 h -2.316 v -15.24 h -5.58 v -1.956 h 13.464 z"
         id="path967" />
      <path
         d="m 178.02651,234.1347 v 12.156 h -2.136 v -12.156 z m 0.456,-3.816 q 0,0.312 -0.132,0.588 -0.12,0.264 -0.336,0.48 -0.204,0.204 -0.492,0.324 -0.276,0.12 -0.588,0.12 -0.312,0 -0.588,-0.12 -0.264,-0.12 -0.468,-0.324 -0.204,-0.216 -0.324,-0.48 -0.12,-0.276 -0.12,-0.588 0,-0.312 0.12,-0.588 0.12,-0.288 0.324,-0.492 0.204,-0.216 0.468,-0.336 0.276,-0.12 0.588,-0.12 0.312,0 0.588,0.12 0.288,0.12 0.492,0.336 0.216,0.204 0.336,0.492 0.132,0.276 0.132,0.588 z"
         id="path969" />
      <path
         d="m 181.5305,246.2907 v -12.156 h 1.284 q 0.456,0 0.564,0.444 l 0.156,1.248 q 0.672,-0.828 1.512,-1.356 0.84,-0.528 1.944,-0.528 1.224,0 1.98,0.684 0.768,0.684 1.104,1.848 0.264,-0.66 0.672,-1.14 0.42,-0.48 0.936,-0.792 0.516,-0.312 1.092,-0.456 0.588,-0.144 1.188,-0.144 0.96,0 1.704,0.312 0.756,0.3 1.272,0.888 0.528,0.588 0.804,1.452 0.276,0.852 0.276,1.956 v 7.74 h -2.148 v -7.74 q 0,-1.428 -0.624,-2.16 -0.624,-0.744 -1.8,-0.744 -0.528,0 -1.008,0.192 -0.468,0.18 -0.828,0.54 -0.36,0.36 -0.576,0.912 -0.204,0.54 -0.204,1.26 v 7.74 h -2.148 v -7.74 q 0,-1.464 -0.588,-2.184 -0.588,-0.72 -1.716,-0.72 -0.792,0 -1.464,0.432 -0.672,0.42 -1.236,1.152 v 9.06 z"
         id="path971" />
      <path
         d="m 203.52646,234.1347 v 12.156 h -2.136 v -12.156 z m 0.456,-3.816 q 0,0.312 -0.132,0.588 -0.12,0.264 -0.336,0.48 -0.204,0.204 -0.492,0.324 -0.276,0.12 -0.588,0.12 -0.312,0 -0.588,-0.12 -0.264,-0.12 -0.468,-0.324 -0.204,-0.216 -0.324,-0.48 -0.12,-0.276 -0.12,-0.588 0,-0.312 0.12,-0.588 0.12,-0.288 0.324,-0.492 0.204,-0.216 0.468,-0.336 0.276,-0.12 0.588,-0.12 0.312,0 0.588,0.12 0.288,0.12 0.492,0.336 0.216,0.204 0.336,0.492 0.132,0.276 0.132,0.588 z"
         id="path973" />
      <path
         d="m 209.04646,235.8987 q 0.396,-0.444 0.84,-0.804 0.444,-0.36 0.936,-0.612 0.504,-0.264 1.056,-0.396 0.564,-0.144 1.212,-0.144 0.996,0 1.752,0.336 0.768,0.324 1.272,0.936 0.516,0.6 0.78,1.452 0.264,0.852 0.264,1.884 v 7.74 h -2.148 v -7.74 q 0,-1.38 -0.636,-2.136 -0.624,-0.768 -1.908,-0.768 -0.948,0 -1.776,0.456 -0.816,0.456 -1.512,1.236 v 8.952 h -2.148 v -12.156 h 1.284 q 0.456,0 0.564,0.444 z"
         id="path975" />
      <path
         d="m 224.65842,240.3507 q 0.648,0 1.14,-0.18 0.492,-0.18 0.828,-0.504 0.336,-0.324 0.504,-0.768 0.168,-0.456 0.168,-0.996 0,-1.116 -0.684,-1.776 -0.672,-0.66 -1.956,-0.66 -1.296,0 -1.98,0.66 -0.672,0.66 -0.672,1.776 0,0.54 0.168,0.996 0.18,0.444 0.516,0.768 0.336,0.324 0.828,0.504 0.492,0.18 1.14,0.18 z m 3.852,6.6 q 0,-0.444 -0.252,-0.72 -0.252,-0.276 -0.684,-0.432 -0.42,-0.156 -0.984,-0.216 -0.564,-0.072 -1.2,-0.108 -0.624,-0.036 -1.272,-0.072 -0.648,-0.036 -1.248,-0.12 -0.672,0.312 -1.104,0.792 -0.42,0.468 -0.42,1.104 0,0.408 0.204,0.756 0.216,0.36 0.648,0.612 0.432,0.264 1.08,0.408 0.66,0.156 1.548,0.156 0.864,0 1.548,-0.156 0.684,-0.156 1.152,-0.444 0.48,-0.288 0.732,-0.684 0.252,-0.396 0.252,-0.876 z m 2.172,-12.336 v 0.792 q 0,0.396 -0.504,0.504 l -1.38,0.18 q 0.408,0.792 0.408,1.752 0,0.888 -0.348,1.62 -0.336,0.72 -0.936,1.236 -0.6,0.516 -1.44,0.792 -0.84,0.276 -1.824,0.276 -0.852,0 -1.608,-0.204 -0.384,0.24 -0.588,0.516 -0.204,0.264 -0.204,0.54 0,0.432 0.348,0.66 0.36,0.216 0.936,0.312 0.576,0.096 1.308,0.12 0.744,0.024 1.512,0.084 0.78,0.048 1.512,0.18 0.744,0.132 1.32,0.432 0.576,0.3 0.924,0.828 0.36,0.528 0.36,1.368 0,0.78 -0.396,1.512 -0.384,0.732 -1.116,1.296 -0.732,0.576 -1.8,0.912 -1.056,0.348 -2.388,0.348 -1.332,0 -2.328,-0.264 -0.996,-0.264 -1.656,-0.708 -0.66,-0.444 -0.996,-1.032 -0.324,-0.576 -0.324,-1.212 0,-0.9 0.564,-1.524 0.564,-0.624 1.548,-0.996 -0.54,-0.24 -0.864,-0.636 -0.312,-0.408 -0.312,-1.092 0,-0.264 0.096,-0.54 0.096,-0.288 0.288,-0.564 0.204,-0.288 0.492,-0.54 0.288,-0.252 0.672,-0.444 -0.9,-0.504 -1.404,-1.332 -0.504,-0.84 -0.504,-1.944 0,-0.888 0.336,-1.608 0.348,-0.732 0.96,-1.236 0.612,-0.516 1.452,-0.792 0.852,-0.276 1.86,-0.276 0.792,0 1.476,0.18 0.684,0.168 1.248,0.504 z"
         id="path977" />
      <path
         d="m 254.45435,237.6987 q 0,1.932 -0.612,3.516 -0.612,1.584 -1.728,2.712 -1.116,1.128 -2.688,1.752 -1.56,0.612 -3.456,0.612 h -6.42 v -17.196 h 6.42 q 1.896,0 3.456,0.624 1.572,0.612 2.688,1.752 1.116,1.128 1.728,2.712 0.612,1.584 0.612,3.516 z m -2.388,0 q 0,-1.584 -0.432,-2.832 -0.432,-1.248 -1.224,-2.112 -0.792,-0.864 -1.92,-1.32 -1.128,-0.456 -2.52,-0.456 h -4.092 v 13.428 h 4.092 q 1.392,0 2.52,-0.456 1.128,-0.456 1.92,-1.308 0.792,-0.864 1.224,-2.112 0.432,-1.248 0.432,-2.832 z"
         id="path979" />
      <path
         d="m 259.31435,234.1347 v 12.156 h -2.136 v -12.156 z m 0.456,-3.816 q 0,0.312 -0.132,0.588 -0.12,0.264 -0.336,0.48 -0.204,0.204 -0.492,0.324 -0.276,0.12 -0.588,0.12 -0.312,0 -0.588,-0.12 -0.264,-0.12 -0.468,-0.324 -0.204,-0.216 -0.324,-0.48 -0.12,-0.276 -0.12,-0.588 0,-0.312 0.12,-0.588 0.12,-0.288 0.324,-0.492 0.204,-0.216 0.468,-0.336 0.276,-0.12 0.588,-0.12 0.312,0 0.588,0.12 0.288,0.12 0.492,0.336 0.216,0.204 0.336,0.492 0.132,0.276 0.132,0.588 z"
         id="path981" />
      <path
         d="m 269.40634,240.8187 q -1.476,0.048 -2.52,0.24 -1.032,0.18 -1.692,0.48 -0.648,0.3 -0.948,0.708 -0.288,0.408 -0.288,0.912 0,0.48 0.156,0.828 0.156,0.348 0.42,0.576 0.276,0.216 0.636,0.324 0.372,0.096 0.792,0.096 0.564,0 1.032,-0.108 0.468,-0.12 0.876,-0.336 0.42,-0.216 0.792,-0.516 0.384,-0.3 0.744,-0.684 z m -6.9,-4.968 q 1.008,-0.972 2.172,-1.452 1.164,-0.48 2.58,-0.48 1.02,0 1.812,0.336 0.792,0.336 1.332,0.936 0.54,0.6 0.816,1.452 0.276,0.852 0.276,1.872 v 7.776 h -0.948 q -0.312,0 -0.48,-0.096 -0.168,-0.108 -0.264,-0.408 l -0.24,-1.152 q -0.48,0.444 -0.936,0.792 -0.456,0.336 -0.96,0.576 -0.504,0.228 -1.08,0.348 -0.564,0.132 -1.26,0.132 -0.708,0 -1.332,-0.192 -0.624,-0.204 -1.092,-0.6 -0.456,-0.396 -0.732,-0.996 -0.264,-0.612 -0.264,-1.44 0,-0.72 0.396,-1.38 0.396,-0.672 1.284,-1.188 0.888,-0.516 2.316,-0.84 1.428,-0.336 3.504,-0.384 v -0.948 q 0,-1.416 -0.612,-2.136 -0.612,-0.732 -1.788,-0.732 -0.792,0 -1.332,0.204 -0.528,0.192 -0.924,0.444 -0.384,0.24 -0.672,0.444 -0.276,0.192 -0.552,0.192 -0.216,0 -0.372,-0.108 -0.156,-0.12 -0.264,-0.288 z"
         id="path983" />
      <path
         d="m 278.98234,240.3507 q 0.648,0 1.14,-0.18 0.492,-0.18 0.828,-0.504 0.336,-0.324 0.504,-0.768 0.168,-0.456 0.168,-0.996 0,-1.116 -0.684,-1.776 -0.672,-0.66 -1.956,-0.66 -1.296,0 -1.98,0.66 -0.672,0.66 -0.672,1.776 0,0.54 0.168,0.996 0.18,0.444 0.516,0.768 0.336,0.324 0.828,0.504 0.492,0.18 1.14,0.18 z m 3.852,6.6 q 0,-0.444 -0.252,-0.72 -0.252,-0.276 -0.684,-0.432 -0.42,-0.156 -0.984,-0.216 -0.564,-0.072 -1.2,-0.108 -0.624,-0.036 -1.272,-0.072 -0.648,-0.036 -1.248,-0.12 -0.672,0.312 -1.104,0.792 -0.42,0.468 -0.42,1.104 0,0.408 0.204,0.756 0.216,0.36 0.648,0.612 0.432,0.264 1.08,0.408 0.66,0.156 1.548,0.156 0.864,0 1.548,-0.156 0.684,-0.156 1.152,-0.444 0.48,-0.288 0.732,-0.684 0.252,-0.396 0.252,-0.876 z m 2.172,-12.336 v 0.792 q 0,0.396 -0.504,0.504 l -1.38,0.18 q 0.408,0.792 0.408,1.752 0,0.888 -0.348,1.62 -0.336,0.72 -0.936,1.236 -0.6,0.516 -1.44,0.792 -0.84,0.276 -1.824,0.276 -0.852,0 -1.608,-0.204 -0.384,0.24 -0.588,0.516 -0.204,0.264 -0.204,0.54 0,0.432 0.348,0.66 0.36,0.216 0.936,0.312 0.576,0.096 1.308,0.12 0.744,0.024 1.512,0.084 0.78,0.048 1.512,0.18 0.744,0.132 1.32,0.432 0.576,0.3 0.924,0.828 0.36,0.528 0.36,1.368 0,0.78 -0.396,1.512 -0.384,0.732 -1.116,1.296 -0.732,0.576 -1.8,0.912 -1.056,0.348 -2.388,0.348 -1.332,0 -2.328,-0.264 -0.996,-0.264 -1.656,-0.708 -0.66,-0.444 -0.996,-1.032 -0.324,-0.576 -0.324,-1.212 0,-0.9 0.564,-1.524 0.564,-0.624 1.548,-0.996 -0.54,-0.24 -0.864,-0.636 -0.312,-0.408 -0.312,-1.092 0,-0.264 0.096,-0.54 0.096,-0.288 0.288,-0.564 0.204,-0.288 0.492,-0.54 0.288,-0.252 0.672,-0.444 -0.9,-0.504 -1.404,-1.332 -0.504,-0.84 -0.504,-1.944 0,-0.888 0.336,-1.608 0.348,-0.732 0.96,-1.236 0.612,-0.516 1.452,-0.792 0.852,-0.276 1.86,-0.276 0.792,0 1.476,0.18 0.684,0.168 1.248,0.504 z"
         id="path985" />
      <path
         d="m 289.2543,236.5707 q 0.576,-1.248 1.416,-1.944 0.84,-0.708 2.052,-0.708 0.384,0 0.732,0.084 0.36,0.084 0.636,0.264 l -0.156,1.596 q -0.072,0.3 -0.36,0.3 -0.168,0 -0.492,-0.072 -0.324,-0.072 -0.732,-0.072 -0.576,0 -1.032,0.168 -0.444,0.168 -0.804,0.504 -0.348,0.324 -0.636,0.816 -0.276,0.48 -0.504,1.104 v 7.68 h -2.148 v -12.156 h 1.224 q 0.348,0 0.48,0.132 0.132,0.132 0.18,0.456 z"
         id="path987" />
      <path
         d="m 302.35823,240.8187 q -1.476,0.048 -2.52,0.24 -1.032,0.18 -1.692,0.48 -0.648,0.3 -0.948,0.708 -0.288,0.408 -0.288,0.912 0,0.48 0.156,0.828 0.156,0.348 0.42,0.576 0.276,0.216 0.636,0.324 0.372,0.096 0.792,0.096 0.564,0 1.032,-0.108 0.468,-0.12 0.876,-0.336 0.42,-0.216 0.792,-0.516 0.384,-0.3 0.744,-0.684 z m -6.9,-4.968 q 1.008,-0.972 2.172,-1.452 1.164,-0.48 2.58,-0.48 1.02,0 1.812,0.336 0.792,0.336 1.332,0.936 0.54,0.6 0.816,1.452 0.276,0.852 0.276,1.872 v 7.776 h -0.948 q -0.312,0 -0.48,-0.096 -0.168,-0.108 -0.264,-0.408 l -0.24,-1.152 q -0.48,0.444 -0.936,0.792 -0.456,0.336 -0.96,0.576 -0.504,0.228 -1.08,0.348 -0.564,0.132 -1.26,0.132 -0.708,0 -1.332,-0.192 -0.624,-0.204 -1.092,-0.6 -0.456,-0.396 -0.732,-0.996 -0.264,-0.612 -0.264,-1.44 0,-0.72 0.396,-1.38 0.396,-0.672 1.284,-1.188 0.888,-0.516 2.316,-0.84 1.428,-0.336 3.504,-0.384 v -0.948 q 0,-1.416 -0.612,-2.136 -0.612,-0.732 -1.788,-0.732 -0.792,0 -1.332,0.204 -0.528,0.192 -0.924,0.444 -0.384,0.24 -0.672,0.444 -0.276,0.192 -0.552,0.192 -0.216,0 -0.372,-0.108 -0.156,-0.12 -0.264,-0.288 z"
         id="path989" />
      <path
         d="m 307.69823,246.2907 v -12.156 h 1.284 q 0.456,0 0.564,0.444 l 0.156,1.248 q 0.672,-0.828 1.512,-1.356 0.84,-0.528 1.944,-0.528 1.224,0 1.98,0.684 0.768,0.684 1.104,1.848 0.264,-0.66 0.672,-1.14 0.42,-0.48 0.936,-0.792 0.516,-0.312 1.092,-0.456 0.588,-0.144 1.188,-0.144 0.96,0 1.704,0.312 0.756,0.3 1.272,0.888 0.528,0.588 0.804,1.452 0.276,0.852 0.276,1.956 v 7.74 h -2.148 v -7.74 q 0,-1.428 -0.624,-2.16 -0.624,-0.744 -1.8,-0.744 -0.528,0 -1.008,0.192 -0.468,0.18 -0.828,0.54 -0.36,0.36 -0.576,0.912 -0.204,0.54 -0.204,1.26 v 7.74 h -2.148 v -7.74 q 0,-1.464 -0.588,-2.184 -0.588,-0.72 -1.716,-0.72 -0.792,0 -1.464,0.432 -0.672,0.42 -1.236,1.152 v 9.06 z"
         id="path991" />
      <path
         d="m 344.99414,231.0507 h -5.568 v 15.24 h -2.316 v -15.24 h -5.58 v -1.956 h 13.464 z"
         id="path993" />
      <path
         d="m 349.23009,233.9427 q 1.332,0 2.4,0.444 1.068,0.444 1.824,1.26 0.756,0.816 1.152,1.98 0.408,1.152 0.408,2.58 0,1.44 -0.408,2.592 -0.396,1.152 -1.152,1.968 -0.756,0.816 -1.824,1.26 -1.068,0.432 -2.4,0.432 -1.344,0 -2.424,-0.432 -1.068,-0.444 -1.824,-1.26 -0.756,-0.816 -1.164,-1.968 -0.396,-1.152 -0.396,-2.592 0,-1.428 0.396,-2.58 0.408,-1.164 1.164,-1.98 0.756,-0.816 1.824,-1.26 1.08,-0.444 2.424,-0.444 z m 0,10.848 q 1.8,0 2.688,-1.2 0.888,-1.212 0.888,-3.372 0,-2.172 -0.888,-3.384 -0.888,-1.212 -2.688,-1.212 -0.912,0 -1.596,0.312 -0.672,0.312 -1.128,0.9 -0.444,0.588 -0.672,1.452 -0.216,0.852 -0.216,1.932 0,2.16 0.888,3.372 0.9,1.2 2.724,1.2 z"
         id="path995" />
      <path
         d="m 362.83808,233.9427 q 1.332,0 2.4,0.444 1.068,0.444 1.824,1.26 0.756,0.816 1.152,1.98 0.408,1.152 0.408,2.58 0,1.44 -0.408,2.592 -0.396,1.152 -1.152,1.968 -0.756,0.816 -1.824,1.26 -1.068,0.432 -2.4,0.432 -1.344,0 -2.424,-0.432 -1.068,-0.444 -1.824,-1.26 -0.756,-0.816 -1.164,-1.968 -0.396,-1.152 -0.396,-2.592 0,-1.428 0.396,-2.58 0.408,-1.164 1.164,-1.98 0.756,-0.816 1.824,-1.26 1.08,-0.444 2.424,-0.444 z m 0,10.848 q 1.8,0 2.688,-1.2 0.888,-1.212 0.888,-3.372 0,-2.172 -0.888,-3.384 -0.888,-1.212 -2.688,-1.212 -0.912,0 -1.596,0.312 -0.672,0.312 -1.128,0.9 -0.444,0.588 -0.672,1.452 -0.216,0.852 -0.216,1.932 0,2.16 0.888,3.372 0.9,1.2 2.724,1.2 z"
         id="path997" />
      <path
         d="m 373.53007,228.6147 v 17.676 h -2.136 v -17.676 z"
         id="path999" />
    </g>
    <g
       aria-label="T"
       transform="matrix(0.75554108,0,0,0.75554108,77.819283,47.775591)"
       id="text2361"
       style="font-size:53.3333px;line-height:1.25;font-family:Lato;-inkscape-font-specification:Lato;letter-spacing:8px;word-spacing:0px;white-space:pre;shape-inside:url(#rect2363);fill:#ffffff;stroke-width:1.32356">
      <path
         d="m 210.32256,153.87574 h -10.93333 v 31.70665 h -9.01333 v -31.70665 h -10.93332 v -7.14666 h 30.87998 z"
         style="font-weight:900;-inkscape-font-specification:'Lato Heavy'"
         id="path1255" />
    </g>
    <g
       aria-label="I"
       transform="matrix(0.75554108,0,0,0.75554108,102.66369,47.775591)"
       id="text49475"
       style="font-size:53.3333px;line-height:1.25;font-family:Lato;-inkscape-font-specification:Lato;letter-spacing:8px;word-spacing:0px;white-space:pre;shape-inside:url(#rect49477);fill:#ffffff;stroke-width:1.32356">
      <path
         d="m 191.46924,185.58239 h -9.06666 v -38.85331 h 9.06666 z"
         style="font-weight:900;-inkscape-font-specification:'Lato Heavy'"
         id="path1258" />
    </g>
    <g
       aria-label="D"
       transform="matrix(0.75554108,0,0,0.75554108,113.26363,47.775591)"
       id="text49481"
       style="font-size:53.3333px;line-height:1.25;font-family:Lato;-inkscape-font-specification:Lato;letter-spacing:8px;word-spacing:0px;white-space:pre;shape-inside:url(#rect49483);fill:#ffffff;stroke-width:1.32356">
      <path
         d="m 217.65589,166.1424 q 0,4.21333 -1.46667,7.78667 -1.44,3.54666 -4.08,6.15999 -2.63999,2.58667 -6.37332,4.05333 -3.70667,1.44 -8.24,1.44 h -15.09332 v -38.85331 h 15.09332 q 4.53333,0 8.24,1.46667 3.73333,1.46666 6.37332,4.05333 2.64,2.58666 4.08,6.16 1.46667,3.54666 1.46667,7.73332 z m -9.22666,0 q 0,-2.87999 -0.74667,-5.19999 -0.74667,-2.32 -2.16,-3.92 -1.38666,-1.62667 -3.41333,-2.48 -2.02666,-0.88 -4.61333,-0.88 h -6.02666 v 24.98665 h 6.02666 q 2.58667,0 4.61333,-0.85333 2.02667,-0.88 3.41333,-2.48 1.41333,-1.62666 2.16,-3.94666 0.74667,-2.32 0.74667,-5.22667 z"
         style="font-weight:900;-inkscape-font-specification:'Lato Heavy'"
         id="path1261" />
    </g>
    <g
       aria-label="O"
       transform="matrix(0.75554108,0,0,0.75554108,183.02183,48.097955)"
       id="text49487"
       style="font-size:53.3333px;line-height:1.25;font-family:Lato;-inkscape-font-specification:Lato;letter-spacing:8px;word-spacing:0px;white-space:pre;shape-inside:url(#rect49489);fill:#ffffff;stroke-width:1.32356">
      <path
         d="m 220.53589,166.1424 q 0,4.21333 -1.46667,7.84 -1.44,3.62666 -4.08,6.32 -2.64,2.66666 -6.37333,4.18666 -3.70666,1.52 -8.23999,1.52 -4.53333,0 -8.26666,-1.52 -3.73333,-1.52 -6.4,-4.18666 -2.64,-2.69334 -4.10666,-6.32 -1.44,-3.62667 -1.44,-7.84 0,-4.21333 1.44,-7.83999 1.46666,-3.62667 4.10666,-6.29333 2.66667,-2.66667 6.4,-4.18667 3.73333,-1.51999 8.26666,-1.51999 4.53333,0 8.23999,1.54666 3.73333,1.52 6.37333,4.18667 2.64,2.66666 4.08,6.29333 1.46667,3.62666 1.46667,7.81332 z m -9.22666,0 q 0,-2.87999 -0.74667,-5.17333 -0.74667,-2.31999 -2.16,-3.91999 -1.38667,-1.6 -3.41333,-2.45334 -2.02667,-0.85333 -4.61333,-0.85333 -2.61333,0 -4.66667,0.85333 -2.02666,0.85334 -3.43999,2.45334 -1.38667,1.6 -2.13334,3.91999 -0.74666,2.29334 -0.74666,5.17333 0,2.90667 0.74666,5.22667 0.74667,2.29333 2.13334,3.89333 1.41333,1.6 3.43999,2.45333 2.05334,0.82667 4.66667,0.82667 2.58666,0 4.61333,-0.82667 2.02666,-0.85333 3.41333,-2.45333 1.41333,-1.6 2.16,-3.89333 0.74667,-2.32 0.74667,-5.22667 z"
         style="font-weight:900;-inkscape-font-specification:'Lato Heavy'"
         id="path1264" />
    </g>
    <g
       aria-label="I"
       transform="matrix(0.75554108,0,0,0.75554108,143.64867,47.775591)"
       id="text54971"
       style="font-size:53.3333px;line-height:1.25;font-family:Lato;-inkscape-font-specification:Lato;letter-spacing:8px;word-spacing:0px;white-space:pre;shape-inside:url(#rect54973);fill:#ffffff;stroke-width:1.32356">
      <path
         d="m 191.46924,185.58239 h -9.06666 v -38.85331 h 9.06666 z"
         style="font-weight:900;-inkscape-font-specification:'Lato Heavy'"
         id="path1267" />
    </g>
    <g
       aria-label="T"
       transform="matrix(0.75554108,0,0,0.75554108,156.48501,47.775591)"
       id="text54977"
       style="font-size:53.3333px;line-height:1.25;font-family:Lato;-inkscape-font-specification:Lato;letter-spacing:8px;word-spacing:0px;white-space:pre;shape-inside:url(#rect54979);fill:#ffffff;stroke-width:1.32356">
      <path
         d="m 210.32256,153.87574 h -10.93333 v 31.70665 h -9.01333 v -31.70665 h -10.93332 v -7.14666 h 30.87998 z"
         style="font-weight:900;-inkscape-font-specification:'Lato Heavy'"
         id="path1270" />
    </g>
    <g
       id="g2663"
       transform="translate(0.00293,-0.32237)">
      <path
         style="color:#000000;fill:#ffffff;stroke-width:1;-inkscape-stroke:none"
         d="m 173.17333,158.95781 v 6.74047 l -3.51879,-0.008 -0.0117,4.94843 8.4789,0.02 v -6.75213 h 7.04919 v 6.74634 h 14.47191 v -4.94844 h -9.52349 v -6.74634 z"
         id="path854" />
      <path
         style="color:#000000;fill:#ffffff;stroke-width:1;-inkscape-stroke:none"
         d="m 180.53552,176.61832 -5.99882,6.74633 h -4.88804 v 4.94843 h 7.10966 l 5.99889,-6.74634 h 3.77712 l 5.99881,6.74634 h 7.10974 v -4.94843 h -4.88805 l -5.99881,-6.74633 z"
         id="path856" />
    </g>
  </g>
</svg>
