<?xml version="1.0" standalone="no"?>
<!DOCTYPE svg PUBLIC "-//W3C//DTD SVG 20010904//EN"
 "http://www.w3.org/TR/2001/REC-SVG-20010904/DTD/svg10.dtd">
<svg version="1.0" xmlns="http://www.w3.org/2000/svg"
 width="700.000000pt" height="700.000000pt" viewBox="0 0 700.000000 700.000000"
 preserveAspectRatio="xMidYMid meet">
<metadata>
Created by potrace 1.14, written by Peter Selinger 2001-2017
</metadata>
<g transform="translate(0.000000,700.000000) scale(0.100000,-0.100000)"
fill="#000000" stroke="none">
<path d="M963 5520 c0 -429 -3 -783 -7 -787 -4 -4 -220 -7 -481 -6 l-474 2 -1
-438 0 -439 917 2 918 1 2 765 c1 421 2 774 2 785 1 20 8 20 955 20 525 0 958
-3 962 -7 4 -5 8 -358 8 -785 l1 -778 1618 -3 1617 -2 0 437 0 438 -1176 0
c-1037 0 -1177 2 -1183 15 -3 8 -6 363 -5 788 l1 772 -1837 0 -1837 0 0 -780z"/>
<path d="M2509 3047 c-46 -56 -138 -167 -204 -246 -66 -79 -196 -234 -288
-345 -93 -110 -176 -210 -185 -221 -10 -11 -130 -155 -267 -320 -137 -165
-252 -302 -255 -305 -3 -3 -25 -30 -50 -60 -25 -30 -52 -60 -60 -67 -11 -9
-157 -12 -608 -13 l-592 0 2 -437 3 -436 799 -1 799 -1 179 215 c99 118 187
224 196 235 10 11 96 115 192 230 96 116 185 221 196 235 12 14 108 129 213
255 106 127 206 247 224 268 18 21 39 47 47 57 8 10 24 29 35 42 11 12 42 50
70 83 l50 60 499 0 498 -1 47 -50 c25 -28 60 -66 76 -85 37 -42 188 -212 195
-219 3 -3 36 -41 75 -85 38 -44 72 -82 75 -85 3 -3 55 -61 115 -130 61 -68
119 -134 130 -145 11 -12 49 -55 85 -96 64 -73 150 -169 160 -179 3 -3 39 -43
80 -90 99 -112 121 -138 222 -250 46 -52 97 -110 113 -127 l28 -33 799 0 798
0 -2 438 -3 437 -599 0 -599 0 -81 91 c-44 50 -108 121 -141 159 -33 37 -81
91 -106 119 -40 44 -497 559 -569 640 -14 16 -36 41 -50 56 -14 15 -121 136
-239 269 l-214 241 -902 0 -901 0 -85 -103z"/>
</g>
</svg>
